<svg width="99" height="49" viewBox="0 0 99 49" fill="none" xmlns="http://www.w3.org/2000/svg">
<path d="M90.2175 43.1658V39.7118H92.9321V43.1658H90.2175ZM90.2175 34.1209V30.667H92.9321V34.1209H90.2175Z" fill="#002E47"/>
<path d="M76.3903 37.0434C76.3903 39.1611 76.7176 41.0748 77.3722 42.7845C78.0268 44.4941 79.0934 46.2576 80.572 48.0751H78.3772C76.8986 46.2576 75.8358 44.498 75.1889 42.796C74.5498 41.0864 74.2302 39.1611 74.2302 37.0203C74.2302 34.9179 74.5459 33.0234 75.1774 31.3369C75.8089 29.6427 76.8755 27.8714 78.3772 26.0232H80.572C79.0934 27.8406 78.0268 29.608 77.3722 31.3253C76.7176 33.035 76.3903 34.941 76.3903 37.0434Z" fill="#002E47"/>
<path d="M68.7432 36.9049C68.7432 39.0073 68.2581 40.6168 67.2877 41.7334C66.3251 42.8424 64.9312 43.3969 63.1061 43.3969C61.3194 43.3969 59.9486 42.8347 58.9937 41.7103C58.0465 40.586 57.5729 38.9842 57.5729 36.9049C57.5729 34.7563 58.058 33.1429 59.0284 32.0648C60.0064 30.979 61.3887 30.436 63.1754 30.436C65.0544 30.436 66.4522 30.9713 67.3686 32.0417C68.285 33.1121 68.7432 34.7332 68.7432 36.9049ZM66.56 36.9049C66.56 35.2492 66.2943 34.0132 65.7629 33.1969C65.2392 32.3805 64.3883 31.9724 63.21 31.9724C62.0164 31.9724 61.1423 32.3882 60.5878 33.22C60.0334 34.0517 59.7561 35.28 59.7561 36.9049C59.7561 38.5221 60.0334 39.7543 60.5878 40.6014C61.1423 41.4408 61.974 41.8605 63.083 41.8605C64.3074 41.8605 65.193 41.4485 65.7398 40.6245C66.2866 39.8005 66.56 38.5606 66.56 36.9049Z" fill="#002E47"/>
<path d="M50.4687 41.5254H54.8583V43.1657H43.5146V41.5254H48.3894V32.3072H44.7045V30.6669H50.4687V41.5254ZM48.1584 28.2411V26.0232H50.4687V28.2411H48.1584Z" fill="#002E47"/>
<path d="M40.2456 36.8585C40.2456 39.0456 39.8528 40.6821 39.0673 41.7679C38.2895 42.8538 37.1728 43.3967 35.7174 43.3967C33.8383 43.3967 32.5522 42.6882 31.8591 41.2712H31.836C31.836 41.6409 31.8206 42.0259 31.7898 42.4264C31.7667 42.8268 31.7475 43.0733 31.7321 43.1657H29.7221C29.7683 42.7498 29.7914 41.8912 29.7914 40.5897V26.0232H31.8707V30.9095C31.8707 31.4101 31.8553 32.0146 31.8245 32.7231H31.8707C32.5715 31.1829 33.8576 30.4128 35.7289 30.4128C38.74 30.4128 40.2456 32.5614 40.2456 36.8585ZM38.097 36.9278C38.097 35.2028 37.8582 33.9552 37.3808 33.1851C36.911 32.4073 36.1717 32.0184 35.1629 32.0184C34.0154 32.0184 33.1799 32.442 32.6562 33.2891C32.1325 34.1285 31.8707 35.403 31.8707 37.1127C31.8707 38.7222 32.1248 39.9158 32.6331 40.6936C33.1414 41.4715 33.9769 41.8604 35.1398 41.8604C36.1794 41.8604 36.9303 41.4599 37.3923 40.659C37.8621 39.8504 38.097 38.6067 38.097 36.9278Z" fill="#002E47"/>
<path d="M17.6623 30.667V38.5913C17.6623 39.7927 17.851 40.6283 18.2283 41.098C18.6057 41.5601 19.2795 41.7911 20.2498 41.7911C21.2433 41.7911 22.0288 41.4523 22.6063 40.7746C23.1839 40.0969 23.4727 39.142 23.4727 37.9098V30.667H25.5635V40.4974C25.5635 41.9528 25.5866 42.8423 25.6328 43.1658H23.6691C23.6614 43.1273 23.6537 43.0233 23.646 42.8539C23.6383 42.6844 23.6267 42.4919 23.6113 42.2763C23.6036 42.053 23.5921 41.6371 23.5767 41.0287H23.542C23.0646 41.8912 22.5101 42.5035 21.8786 42.8654C21.2548 43.2197 20.477 43.3968 19.5452 43.3968C18.1744 43.3968 17.1694 43.0579 16.5302 42.3803C15.8987 41.6949 15.583 40.5667 15.583 38.9957V30.667H17.6623Z" fill="#002E47"/>
<path d="M11.309 32.5615C10.4465 32.4152 9.63014 32.342 8.86004 32.342C7.62018 32.342 6.61904 32.808 5.85664 33.7398C5.09424 34.6716 4.71304 35.8576 4.71304 37.2976V43.1658H2.63376V35.0682C2.63376 34.4829 2.57985 33.7937 2.47204 33.0005C2.37193 32.2073 2.22561 31.4295 2.03308 30.6671H4.00839C4.31644 31.7298 4.50126 32.6924 4.56287 33.555H4.62063C5.00568 32.6924 5.38303 32.061 5.75268 31.6605C6.12233 31.2523 6.56128 30.9482 7.06955 30.7479C7.57782 30.54 8.19775 30.436 8.92935 30.436C9.73026 30.436 10.5235 30.5015 11.309 30.6324V32.5615Z" fill="#002E47"/>
<path d="M84.4302 19.6839V18.575H98.731V19.6839H84.4302Z" fill="#002E47"/>
<path d="M72.4166 0H74.5075V4.5051C74.5075 4.95946 74.4728 5.71801 74.4035 6.78075H74.4381C75.2468 5.20204 76.5521 4.41269 78.3541 4.41269C81.0495 4.41269 82.3972 5.87973 82.3972 8.81382V17.1425H80.3063V9.11416C80.3063 8.06683 80.1023 7.28902 79.6941 6.78075C79.2936 6.27249 78.6506 6.01835 77.765 6.01835C76.8101 6.01835 76.0246 6.36875 75.4085 7.06954C74.8001 7.76263 74.4959 8.70601 74.4959 9.89967V17.1425H72.4166V0Z" fill="#002E47"/>
<path d="M58.266 6.28408V4.64376H60.2298L60.8997 1.38623H62.2859V4.64376H67.2762V6.28408H62.2859V13.8157C62.2859 14.4241 62.4476 14.8746 62.7711 15.1672C63.1022 15.4599 63.6413 15.6062 64.3883 15.6062C65.4202 15.6062 66.5638 15.4753 67.8191 15.2134V16.796C66.5176 17.1502 65.2277 17.3274 63.9493 17.3274C62.7018 17.3274 61.7661 17.0655 61.1423 16.5419C60.5185 16.0105 60.2066 15.1749 60.2066 14.0352V6.28408H58.266Z" fill="#002E47"/>
<path d="M50.4687 15.5022H54.8583V17.1425H43.5146V15.5022H48.3894V6.28404H44.7045V4.64372H50.4687V15.5022ZM48.1584 2.2179V0H50.4687V2.2179H48.1584Z" fill="#002E47"/>
<path d="M39.7257 6.53808C38.8632 6.39176 38.0469 6.3186 37.2768 6.3186C36.0369 6.3186 35.0358 6.78451 34.2734 7.71634C33.511 8.64816 33.1298 9.83412 33.1298 11.2742V17.1424H31.0505V9.04477C31.0505 8.45949 30.9966 7.77025 30.8888 6.97704C30.7887 6.18383 30.6424 5.40603 30.4498 4.64363H32.4251C32.7332 5.70637 32.918 6.669 32.9796 7.53151H33.0374C33.4224 6.669 33.7998 6.03751 34.1694 5.63706C34.5391 5.22891 34.978 4.92472 35.4863 4.72449C35.9946 4.51656 36.6145 4.4126 37.3461 4.4126C38.147 4.4126 38.9402 4.47806 39.7257 4.60897V6.53808Z" fill="#002E47"/>
<path d="M17.6623 4.6438V12.5682C17.6623 13.7695 17.851 14.6051 18.2283 15.0748C18.6057 15.5369 19.2795 15.7679 20.2498 15.7679C21.2433 15.7679 22.0288 15.4291 22.6063 14.7514C23.1839 14.0737 23.4727 13.1188 23.4727 11.8866V4.6438H25.5635V14.4742C25.5635 15.9297 25.5866 16.8191 25.6328 17.1426H23.6691C23.6614 17.1041 23.6537 17.0001 23.646 16.8307C23.6383 16.6613 23.6267 16.4687 23.6113 16.2531C23.6036 16.0298 23.5921 15.6139 23.5767 15.0055H23.542C23.0646 15.868 22.5101 16.4803 21.8786 16.8422C21.2548 17.1965 20.477 17.3736 19.5452 17.3736C18.1744 17.3736 17.1694 17.0348 16.5302 16.3571C15.8987 15.6717 15.583 14.5435 15.583 12.9725V4.6438H17.6623Z" fill="#002E47"/>
<path d="M2.61065 22.052C2.04077 22.052 1.56331 22.0096 1.17826 21.9249V20.3654C1.4709 20.4116 1.79434 20.4348 2.14859 20.4348C2.75697 20.4348 3.32684 20.2076 3.85821 19.7532C4.39729 19.2989 4.85165 18.575 5.2213 17.5815L5.42922 17.0155L0 4.6438H2.2179L5.2675 12.0599C5.9683 13.7849 6.34565 14.7629 6.39955 14.994L6.87317 13.7233L10.4541 4.6438H12.6489L7.38143 17.1426C6.69604 18.9523 5.9837 20.223 5.2444 20.9546C4.5128 21.6862 3.63488 22.052 2.61065 22.052Z" fill="#002E47"/>
</svg>
