<svg width="100" height="49" viewBox="0 0 100 49" fill="none" xmlns="http://www.w3.org/2000/svg">
<path d="M90.5398 43.1658V39.7118H93.2544V43.1658H90.5398ZM90.5398 34.1209V30.667H93.2544V34.1209H90.5398Z" fill="#8FFFCB"/>
<path d="M76.7126 37.0434C76.7126 39.1611 77.0399 41.0748 77.6945 42.7845C78.3491 44.4941 79.4157 46.2576 80.8943 48.0751H78.6995C77.2209 46.2576 76.1582 44.498 75.5113 42.796C74.8721 41.0864 74.5525 39.1611 74.5525 37.0203C74.5525 34.9179 74.8682 33.0234 75.4997 31.3369C76.1312 29.6427 77.1978 27.8714 78.6995 26.0232H80.8943C79.4157 27.8406 78.3491 29.608 77.6945 31.3253C77.0399 33.035 76.7126 34.941 76.7126 37.0434Z" fill="#8FFFCB"/>
<path d="M69.0655 36.9049C69.0655 39.0073 68.5803 40.6168 67.61 41.7334C66.6474 42.8424 65.2535 43.3969 63.4283 43.3969C61.6417 43.3969 60.2709 42.8347 59.316 41.7103C58.3688 40.586 57.8951 38.9842 57.8951 36.9049C57.8951 34.7563 58.3803 33.1429 59.3506 32.0648C60.3287 30.979 61.711 30.436 63.4976 30.436C65.3767 30.436 66.7744 30.9713 67.6908 32.0417C68.6073 33.1121 69.0655 34.7332 69.0655 36.9049ZM66.8822 36.9049C66.8822 35.2492 66.6166 34.0132 66.0852 33.1969C65.5615 32.3805 64.7105 31.9724 63.5323 31.9724C62.3386 31.9724 61.4646 32.3882 60.9101 33.22C60.3556 34.0517 60.0784 35.28 60.0784 36.9049C60.0784 38.5221 60.3556 39.7543 60.9101 40.6014C61.4646 41.4408 62.2963 41.8605 63.4052 41.8605C64.6297 41.8605 65.5153 41.4485 66.0621 40.6245C66.6089 39.8005 66.8822 38.5606 66.8822 36.9049Z" fill="#8FFFCB"/>
<path d="M50.7909 41.5254H55.1805V43.1657H43.8369V41.5254H48.7117V32.3072H45.0267V30.6669H50.7909V41.5254ZM48.4806 28.2411V26.0232H50.7909V28.2411H48.4806Z" fill="#8FFFCB"/>
<path d="M40.5679 36.8585C40.5679 39.0456 40.1751 40.6821 39.3896 41.7679C38.6118 42.8538 37.4952 43.3967 36.0397 43.3967C34.1606 43.3967 32.8746 42.6882 32.1815 41.2712H32.1584C32.1584 41.6409 32.143 42.0259 32.1122 42.4264C32.0891 42.8268 32.0698 43.0733 32.0544 43.1657H30.0444C30.0906 42.7498 30.1137 41.8912 30.1137 40.5897V26.0232H32.193V30.9095C32.193 31.4101 32.1776 32.0146 32.1468 32.7231H32.193C32.8938 31.1829 34.1799 30.4128 36.0512 30.4128C39.0623 30.4128 40.5679 32.5614 40.5679 36.8585ZM38.4193 36.9278C38.4193 35.2028 38.1806 33.9552 37.7031 33.1851C37.2333 32.4073 36.494 32.0184 35.4852 32.0184C34.3378 32.0184 33.5022 32.442 32.9785 33.2891C32.4549 34.1285 32.193 35.403 32.193 37.1127C32.193 38.7222 32.4472 39.9158 32.9554 40.6936C33.4637 41.4715 34.2993 41.8604 35.4621 41.8604C36.5017 41.8604 37.2526 41.4599 37.7147 40.659C38.1844 39.8504 38.4193 38.6067 38.4193 36.9278Z" fill="#8FFFCB"/>
<path d="M17.9846 30.667V38.5913C17.9846 39.7927 18.1732 40.6283 18.5506 41.098C18.9279 41.5601 19.6018 41.7911 20.5721 41.7911C21.5655 41.7911 22.351 41.4523 22.9286 40.7746C23.5062 40.0969 23.795 39.142 23.795 37.9098V30.667H25.8858V40.4974C25.8858 41.9528 25.9089 42.8423 25.9551 43.1658H23.9914C23.9837 43.1273 23.9759 43.0233 23.9682 42.8539C23.9605 42.6844 23.949 42.4919 23.9336 42.2763C23.9259 42.053 23.9143 41.6371 23.8989 41.0287H23.8643C23.3868 41.8912 22.8323 42.5035 22.2009 42.8654C21.5771 43.2197 20.7993 43.3968 19.8675 43.3968C18.4967 43.3968 17.4917 43.0579 16.8525 42.3803C16.221 41.6949 15.9053 40.5667 15.9053 38.9957V30.667H17.9846Z" fill="#8FFFCB"/>
<path d="M11.6312 32.5615C10.7687 32.4152 9.95241 32.342 9.18231 32.342C7.94244 32.342 6.94131 32.808 6.17891 33.7398C5.4165 34.6716 5.0353 35.8576 5.0353 37.2976V43.1658H2.95603V35.0682C2.95603 34.4829 2.90212 33.7937 2.79431 33.0005C2.69419 32.2073 2.54787 31.4295 2.35535 30.6671H4.33066C4.6387 31.7298 4.82353 32.6924 4.88513 33.555H4.94289C5.32794 32.6924 5.70529 32.061 6.07494 31.6605C6.44459 31.2523 6.88355 30.9482 7.39182 30.7479C7.90009 30.54 8.52002 30.436 9.25162 30.436C10.0525 30.436 10.8457 30.5015 11.6312 30.6324V32.5615Z" fill="#8FFFCB"/>
<path d="M84.7524 19.6839V18.575H99.0532V19.6839H84.7524Z" fill="#8FFFCB"/>
<path d="M72.7389 0H74.8297V4.5051C74.8297 4.95946 74.7951 5.71801 74.7258 6.78075H74.7604C75.569 5.20204 76.8743 4.41269 78.6764 4.41269C81.3717 4.41269 82.7194 5.87973 82.7194 8.81382V17.1425H80.6286V9.11416C80.6286 8.06683 80.4245 7.28902 80.0164 6.78075C79.6159 6.27249 78.9729 6.01835 78.0873 6.01835C77.1323 6.01835 76.3468 6.36875 75.7307 7.06954C75.1224 7.76263 74.8182 8.70601 74.8182 9.89967V17.1425H72.7389V0Z" fill="#8FFFCB"/>
<path d="M58.5883 6.28408V4.64376H60.552L61.222 1.38623H62.6082V4.64376H67.5985V6.28408H62.6082V13.8157C62.6082 14.4241 62.7699 14.8746 63.0934 15.1672C63.4245 15.4599 63.9636 15.6062 64.7106 15.6062C65.7425 15.6062 66.8861 15.4753 68.1414 15.2134V16.796C66.8399 17.1502 65.55 17.3274 64.2716 17.3274C63.024 17.3274 62.0884 17.0655 61.4646 16.5419C60.8408 16.0105 60.5289 15.1749 60.5289 14.0352V6.28408H58.5883Z" fill="#8FFFCB"/>
<path d="M50.7909 15.5022H55.1805V17.1425H43.8369V15.5022H48.7117V6.28404H45.0267V4.64372H50.7909V15.5022ZM48.4806 2.2179V0H50.7909V2.2179H48.4806Z" fill="#8FFFCB"/>
<path d="M40.048 6.53808C39.1855 6.39176 38.3692 6.3186 37.5991 6.3186C36.3592 6.3186 35.3581 6.78451 34.5957 7.71634C33.8333 8.64816 33.4521 9.83412 33.4521 11.2742V17.1424H31.3728V9.04477C31.3728 8.45949 31.3189 7.77025 31.2111 6.97704C31.1109 6.18383 30.9646 5.40603 30.7721 4.64363H32.7474C33.0554 5.70637 33.2403 6.669 33.3019 7.53151H33.3596C33.7447 6.669 34.122 6.03751 34.4917 5.63706C34.8613 5.22891 35.3003 4.92472 35.8086 4.72449C36.3168 4.51656 36.9368 4.4126 37.6684 4.4126C38.4693 4.4126 39.2625 4.47806 40.048 4.60897V6.53808Z" fill="#8FFFCB"/>
<path d="M17.9846 4.6438V12.5682C17.9846 13.7695 18.1732 14.6051 18.5506 15.0748C18.9279 15.5369 19.6018 15.7679 20.5721 15.7679C21.5655 15.7679 22.351 15.4291 22.9286 14.7514C23.5062 14.0737 23.795 13.1188 23.795 11.8866V4.6438H25.8858V14.4742C25.8858 15.9297 25.9089 16.8191 25.9551 17.1426H23.9914C23.9837 17.1041 23.9759 17.0001 23.9682 16.8307C23.9605 16.6613 23.949 16.4687 23.9336 16.2531C23.9259 16.0298 23.9143 15.6139 23.8989 15.0055H23.8643C23.3868 15.868 22.8323 16.4803 22.2009 16.8422C21.5771 17.1965 20.7993 17.3736 19.8675 17.3736C18.4967 17.3736 17.4917 17.0348 16.8525 16.3571C16.221 15.6717 15.9053 14.5435 15.9053 12.9725V4.6438H17.9846Z" fill="#8FFFCB"/>
<path d="M2.93291 22.052C2.36304 22.052 1.88557 22.0096 1.50052 21.9249V20.3654C1.79316 20.4116 2.1166 20.4348 2.47085 20.4348C3.07923 20.4348 3.64911 20.2076 4.18048 19.7532C4.71955 19.2989 5.17391 18.575 5.54356 17.5815L5.75149 17.0155L0.322266 4.6438H2.54016L5.58977 12.0599C6.29056 13.7849 6.66791 14.7629 6.72182 14.994L7.19543 13.7233L10.7764 4.6438H12.9712L7.7037 17.1426C7.01831 18.9523 6.30596 20.223 5.56666 20.9546C4.83507 21.6862 3.95715 22.052 2.93291 22.052Z" fill="#8FFFCB"/>
</svg>
